<svg xmlns="http://www.w3.org/2000/svg" width="23" height="24" viewBox="0 0 23 24">
    <path fill="#716DFF" fill-rule="nonzero" d="M10.5 18H12v1.5h-1.5V18zm0 3H12a1.5 1.5 0 0 0 1.5-1.5V18a1.5 1.5 0 0 0-1.5-1.5h-1.5A1.5 1.5 0 0 0 9 18v1.5a1.5 1.5 0 0 0 1.5 1.5zm-6-3H6v1.5H4.5V18zm0 3H6a1.5 1.5 0 0 0 1.5-1.5V18A1.5 1.5 0 0 0 6 16.5H4.5A1.5 1.5 0 0 0 3 18v1.5A1.5 1.5 0 0 0 4.5 21zm6-9H12v1.5h-1.5V12zm0 3H12a1.5 1.5 0 0 0 1.5-1.5V12a1.5 1.5 0 0 0-1.5-1.5h-1.5A1.5 1.5 0 0 0 9 12v1.5a1.5 1.5 0 0 0 1.5 1.5zm-6-3H6v1.5H4.5V12zm0 3H6a1.5 1.5 0 0 0 1.5-1.5V12A1.5 1.5 0 0 0 6 10.5H4.5A1.5 1.5 0 0 0 3 12v1.5A1.5 1.5 0 0 0 4.5 15zM21 6H1.5V4.5A1.5 1.5 0 0 1 3 3h3v.75a.75.75 0 1 0 1.5 0V3H15v.75a.75.75 0 1 0 1.5 0V3h3A1.5 1.5 0 0 1 21 4.5V6zm0 15a1.5 1.5 0 0 1-1.5 1.5H3A1.5 1.5 0 0 1 1.5 21V7.5H21V21zM19.5 1.5h-3V.75a.75.75 0 1 0-1.5 0v.75H7.5V.75a.75.75 0 1 0-1.5 0v.75H3a3 3 0 0 0-3 3V21a3 3 0 0 0 3 3h16.5a3 3 0 0 0 3-3V4.5a3 3 0 0 0-3-3zm-3 10.5H18v1.5h-1.5V12zm0 3H18a1.5 1.5 0 0 0 1.5-1.5V12a1.5 1.5 0 0 0-1.5-1.5h-1.5A1.5 1.5 0 0 0 15 12v1.5a1.5 1.5 0 0 0 1.5 1.5zm0 3H18v1.5h-1.5V18zm0 3H18a1.5 1.5 0 0 0 1.5-1.5V18a1.5 1.5 0 0 0-1.5-1.5h-1.5A1.5 1.5 0 0 0 15 18v1.5a1.5 1.5 0 0 0 1.5 1.5z"/>
</svg>
