<svg xmlns="http://www.w3.org/2000/svg" width="25" height="21" viewBox="0 0 25 21">
    <g fill="#716DFF" fill-rule="nonzero">
        <path d="M24.743 9.737L12.936.148a.699.699 0 0 0-.86 0L.268 9.737a.694.694 0 1 0 .444 1.244.91.91 0 0 0 .445-.141L12.52 1.62l11.362 9.22c.305.254.75.198.972-.113a.726.726 0 0 0-.11-.99z"/>
        <path d="M20.309 10a.694.694 0 0 0-.691.71v8.869h-3.51v-3.837c0-2.047-1.632-3.724-3.622-3.724s-3.621 1.677-3.621 3.724v3.837H5.382V10.71a.694.694 0 0 0-.69-.711.694.694 0 0 0-.692.71v9.58c0 .397.304.71.691.71h4.865a.694.694 0 0 0 .691-.71v-4.548c0-1.28.995-2.303 2.24-2.303 1.243 0 2.238 1.024 2.238 2.303v4.547c0 .398.304.711.691.711h4.893a.694.694 0 0 0 .691-.71v-9.58a.712.712 0 0 0-.691-.71z"/>
    </g>
</svg>
