<svg xmlns="http://www.w3.org/2000/svg" width="20" height="24" viewBox="0 0 20 24">
    <path fill="#716DFF" fill-rule="nonzero" d="M18.462 21.75a.76.76 0 0 1-.77.75.76.76 0 0 1-.769-.75v-7.5a.76.76 0 0 1 .77-.75.76.76 0 0 1 .769.75v7.5zm0-9.75h-1.539c-.85 0-1.538.672-1.538 1.5v9c0 .828.689 1.5 1.538 1.5h1.539C19.31 24 20 23.328 20 22.5v-9c0-.828-.69-1.5-1.538-1.5zM3.077 21.75a.76.76 0 0 1-.77.75.76.76 0 0 1-.769-.75V9a.76.76 0 0 1 .77-.75.76.76 0 0 1 .769.75v12.75zm0-15H1.538C.69 6.75 0 7.422 0 8.25V22.5c0 .828.69 1.5 1.538 1.5h1.539c.85 0 1.538-.672 1.538-1.5V8.25c0-.828-.689-1.5-1.538-1.5zm7.692 15a.76.76 0 0 1-.769.75.76.76 0 0 1-.77-.75V2.25A.76.76 0 0 1 10 1.5a.76.76 0 0 1 .77.75v19.5zm0-21.75H9.231c-.85 0-1.539.672-1.539 1.5v21c0 .828.69 1.5 1.539 1.5h1.538c.85 0 1.539-.672 1.539-1.5v-21c0-.828-.69-1.5-1.539-1.5z"/>
</svg>
